<?xml version="1.0" encoding="UTF-8"?>
<svg width="92px" height="40px" viewBox="0 0 92 40" version="1.1" xmlns="http://www.w3.org/2000/svg" xmlns:xlink="http://www.w3.org/1999/xlink">
<g id="Page-1" stroke="none" stroke-width="1" fill="none" fill-rule="evenodd">
<g id="Group">
<path d="M67.2536175,0 L68.7467344,2.62015921 L68.7467344,2.62031872 C68.7467344,2.62031872 73.127721,4.67687705 76.3113216,3.64867764 C80.537318,2.25408449 82.847922,3.39495091 82.847922,3.39495091 L82.847922,2.62015921 L83.4253471,2.62015921 L83.4253471,4.01491187 C83.4253471,4.01491187 84.7072732,3.90208536 86.0453468,4.0570756 C87.383633,4.21227852 88.3557914,4.98696387 88.3556319,4.98696387 C88.3556319,4.98696387 89.6515417,5.91663947 90.1164592,6.17015353 C90.5815363,6.4519008 91.8071024,7.12800917 91.8069428,7.12816868 C91.8069428,7.12816868 92.1028333,7.40975644 91.9619863,7.74797013 C91.708419,8.36777159 89.4406699,8.52276183 89.4405104,8.52276183 C89.4405104,8.52276183 79.6501251,8.59331828 72.9726776,8.21272818 C69.9157809,8.04370108 67.3802682,7.42389963 66.9436902,7.28305258 C65.5631339,6.87465462 65.3095666,5.76159606 65.3095666,5.76159606 L64.0700169,0.916010935 L61.7032122,0.916010935 L61.7032122,0 L67.2536175,0 Z M65.4718943,8.24962808 L52.3076134,8.24962808 L52.3076134,7.47462371 L65.4718943,7.47462371 L65.4718943,8.24962808 Z M64.1172849,6.57073551 L42.8050368,6.57073551 L42.8050368,5.7957843 L64.1172849,5.7957843 L64.1172849,6.57073551 Z M62.6411292,4.89173659 L9.5,4.89173659 L9.5,4.11678539 L62.6411292,4.11678539 L62.6411292,4.89173659 Z M2.84217094e-14,32.40625 L2.84217094e-14,3.5 L5.625,3.5 L5.625,32.40625 L2.84217094e-14,32.40625 Z" id="Combined-Shape" fill="#E30016"></path>
<path d="M29.6688389,32.3832938 L24.6999408,32.3832938 L24.1623223,14.9188389 L15.4626777,32.3832938 L10.3960308,32.3832938 L9.5,8.5 L14.3059834,8.5 L14.5177725,25.2150474 L22.7123815,8.5 L28.0396919,8.5 L28.5936019,25.0358412 L36.4623815,8.5 L41.2194905,8.5 L29.6688389,32.3832938 Z M44.4126185,19.9854858 L39.8510071,19.5944905 C40.3723367,18.0522237 41.2819347,16.8466671 42.5798282,15.9777844 C43.8777217,15.1089017 45.5964545,14.6744668 47.7360782,14.6744668 C49.9625901,14.6744668 51.6080121,15.1224777 52.6723934,16.018513 C53.7367747,16.9145483 54.2689573,18.0087811 54.2689573,19.3012441 C54.2689573,19.8225737 54.2227986,20.3764781 54.1304799,20.9629739 C54.0381611,21.5494698 53.7150502,23.0917134 53.1611374,25.5897512 C52.704974,27.6533476 52.4768957,29.0978434 52.4768957,29.923282 C52.4768957,30.6618323 52.6072262,31.481828 52.867891,32.3832938 L48.3225711,32.3832938 C48.1379335,31.7533539 48.0238944,31.1017016 47.9804502,30.4283175 C47.2962051,31.1885899 46.508792,31.7723617 45.6181872,32.1796505 C44.7275824,32.5869392 43.8315606,32.7905806 42.9300948,32.7905806 C41.4964383,32.7905806 40.3126034,32.3208479 39.3785545,31.3813685 C38.4445056,30.4418891 37.9774882,29.2336172 37.9774882,27.7565166 C37.9774882,26.1056395 38.4906643,24.7860436 39.517032,23.7976896 C40.5433997,22.8093355 42.3761716,22.2119876 45.0154028,22.005628 C47.2419148,21.8209904 48.7298541,21.5983425 49.4792654,21.3376777 C49.674764,20.6860157 49.7725118,20.1646939 49.7725118,19.7736967 C49.7725118,19.2740891 49.5715857,18.8559456 49.1697275,18.5192536 C48.7678692,18.1825615 48.1705213,18.014218 47.3776659,18.014218 C46.5413663,18.014218 45.8815684,18.1852767 45.3982524,18.5273993 C44.9149364,18.8695219 44.586395,19.3555458 44.4126185,19.9854858 Z M48.8601896,24.3190166 C48.5778027,24.3950438 48.2031027,24.4656395 47.7360782,24.5308057 C45.3900949,24.8131926 43.8587121,25.2259057 43.1418839,25.7689573 C42.6314153,26.1599546 42.3761848,26.6867068 42.3761848,27.3492299 C42.3761848,27.8922815 42.5716805,28.3511533 42.9626777,28.725859 C43.3536749,29.1005647 43.8695663,29.2879147 44.5103673,29.2879147 C45.2163345,29.2879147 45.8815628,29.116856 46.5060723,28.7747334 C47.1305817,28.4326108 47.5975992,27.9927456 47.9071386,27.4551244 C48.2166781,26.9175032 48.4909151,26.078501 48.7298578,24.9380924 L48.8601896,24.3190166 Z M57.8204976,15.0817536 L62.4798578,15.0817536 L63.6528436,23.6999408 C63.9460915,25.9155916 64.1090046,27.4686962 64.1415877,28.3593009 C64.7498056,26.5889524 65.5860926,24.7208827 66.6504739,22.7550355 L70.7885071,15.0817536 L75.7411137,15.0817536 L65.05391,34.0776066 C64.1741662,35.6524565 63.4817857,36.7548349 62.9767476,37.3847749 C62.4717096,38.0147148 61.8635008,38.5088845 61.1521031,38.8672986 C60.4407054,39.2257127 59.5854118,39.4049171 58.5861967,39.4049171 C57.5978426,39.4049171 56.4846033,39.2311431 55.2464455,38.88359 L55.6537322,35.3972156 C56.218506,35.5601311 56.76698,35.6415877 57.2991706,35.6415877 C58.7328271,35.6415877 59.9112316,34.5555006 60.8344194,32.3832938 L57.8204976,15.0817536 Z M74.3237559,27.5447275 L78.8527844,26.8279028 C79.2546426,27.7836738 79.7542427,28.459763 80.3515995,28.8561908 C80.9489564,29.2526185 81.7635217,29.4508294 82.7953199,29.4508294 C83.8597012,29.4508294 84.7122796,29.2118902 85.3530806,28.7340047 C85.798383,28.4081737 86.0210308,28.0117519 86.0210308,27.5447275 C86.0210308,27.2297575 85.9069917,26.9473749 85.67891,26.6975711 C85.4399672,26.4586283 84.7937454,26.1653848 83.7402251,25.8178318 C80.9163563,24.8837828 79.1677561,24.1452436 78.494372,23.6021919 C77.4408518,22.7550313 76.9140995,21.6472225 76.9140995,20.2787322 C76.9140995,18.910242 77.4245605,17.7318375 78.4454976,16.7434834 C79.8682931,15.3641321 81.9807324,14.6744668 84.7828791,14.6744668 C87.0093911,14.6744668 88.6928261,15.0817495 89.8332346,15.896327 C90.9736431,16.7109045 91.6958911,17.8132829 92,19.2034953 L87.6827607,19.9529028 C87.454679,19.3229629 87.0854093,18.850515 86.5749408,18.535545 C85.8798346,18.1119647 85.0435475,17.9001777 84.0660545,17.9001777 C83.0885615,17.9001777 82.3853201,18.0630908 81.9563092,18.3889218 C81.5272984,18.7147528 81.3127962,19.0894529 81.3127962,19.5130332 C81.3127962,19.9474745 81.5300136,20.3058833 81.964455,20.5882701 C82.2359808,20.7620467 83.1102809,21.0661511 84.5873815,21.5005924 C86.8681986,22.1631155 88.394151,22.8147677 89.1652844,23.4555687 C90.2513877,24.3570345 90.7944313,25.4431216 90.7944313,26.7138626 C90.7944313,28.3538787 90.104766,29.7766527 88.7254147,30.9822275 C87.3460634,32.1878022 85.4019675,32.7905806 82.8930687,32.7905806 C80.395031,32.7905806 78.4645112,32.3317088 77.1014514,31.4139514 C75.7383917,30.4961941 74.8125024,29.2064657 74.3237559,27.5447275 Z" id="Ways" fill="#009EE0"></path>
</g>
</g>
</svg>
